<svg xmlns="http://www.w3.org/2000/svg" viewBox="0 0 160 190"><defs><linearGradient id="trunk" x1="0" x2="1"><stop stop-color="#553c2e"/><stop offset="1" stop-color="#9a6840"/></linearGradient><linearGradient id="leaf" x1="0" y1="0" x2="1" y2="1"><stop stop-color="#b7c96b"/><stop offset=".48" stop-color="#557d55"/><stop offset="1" stop-color="#244f4b"/></linearGradient></defs><ellipse cx="82" cy="174" rx="48" ry="10" fill="#163d3b" opacity=".3"/><path d="M69 171c9-31 8-55 3-77l18-4c8 28 6 54 1 81z" fill="url(#trunk)"/><path d="M80 112C42 103 22 79 36 49c9-19 28-22 43-14C79 11 101 1 121 15c19 13 18 35 6 47 16 10 16 32 5 45-12 13-30 15-52 5z" fill="url(#leaf)" stroke="#1c4a47" stroke-width="5" stroke-linejoin="round"/><path d="M46 55c10-13 22-18 35-11M98 25c9 3 16 11 18 20M61 88c12 7 24 7 34 2" fill="none" stroke="#d6dd87" stroke-width="5" stroke-linecap="round" opacity=".65"/></svg>