<svg xmlns="http://www.w3.org/2000/svg" viewBox="0 0 180 210"><defs><linearGradient id="leaf" x1="0" y1="0" x2="1" y2="1"><stop stop-color="#d4dd5a"/><stop offset=".48" stop-color="#8ba52f"/><stop offset="1" stop-color="#537c2e"/></linearGradient><linearGradient id="trunk" x1="0" x2="1"><stop stop-color="#6b302f"/><stop offset="1" stop-color="#b45a36"/></linearGradient></defs><ellipse cx="89" cy="194" rx="57" ry="10" fill="#421747" opacity=".28"/><path d="M74 191c8-38 8-65 2-88l24-3c8 28 6 56 0 91z" fill="url(#trunk)" stroke="#421747" stroke-width="7" stroke-linejoin="round"/><path d="M82 117C43 113 22 90 31 58c5-19 22-28 40-22 1-22 18-35 38-29 14 4 22 15 23 28 19-3 34 11 35 29 1 14-6 24-17 31 15 16 11 40-3 51-15 12-39 8-65-9z" fill="url(#leaf)" stroke="#421747" stroke-width="8" stroke-linejoin="round"/><path d="M48 58c10-14 25-18 39-11M104 31c11 3 17 12 18 22M53 89c13 8 28 8 38 0M110 88c12-4 23-1 31 7" fill="none" stroke="#f0e36e" stroke-width="6" stroke-linecap="round" opacity=".8"/></svg>